<svg width="100" height="100" viewBox="0 0 100 100" fill="none" xmlns="http://www.w3.org/2000/svg">
  <!-- Background rounded square - Saudi green -->
  <rect width="100" height="100" rx="14" fill="#1B6B3A"/>
  <!-- Palm tree trunk -->
  <rect x="47" y="52" width="6" height="24" rx="2" fill="white"/>
  <!-- Palm tree fronds -->
  <ellipse cx="50" cy="44" rx="18" ry="6" fill="white" transform="rotate(-20 50 44)"/>
  <ellipse cx="50" cy="44" rx="18" ry="6" fill="white" transform="rotate(20 50 44)"/>
  <ellipse cx="50" cy="40" rx="16" ry="5" fill="white" transform="rotate(-50 50 40)"/>
  <ellipse cx="50" cy="40" rx="16" ry="5" fill="white" transform="rotate(50 50 40)"/>
  <ellipse cx="50" cy="38" rx="14" ry="5" fill="white"/>
  <!-- Sword (simplified) below palm -->
  <rect x="20" y="76" width="60" height="3" rx="1.5" fill="white" opacity="0.8"/>
  <path d="M75 74 L80 77.5 L75 81" fill="white" opacity="0.8"/>
  <!-- People icon (HR symbol) at top left -->
  <circle cx="22" cy="22" r="7" fill="white" opacity="0.9"/>
  <path d="M12 38 Q12 30 22 30 Q32 30 32 38" fill="white" opacity="0.9"/>
</svg>
